<svg xmlns="http://www.w3.org/2000/svg" xmlns:xlink="http://www.w3.org/1999/xlink" width="174" height="1060" viewBox="0 0 174 1060"><svg width="27" height="40" viewBox="-5 -5 27 40" id="arrownext" y="0"><title>arrownext</title><desc>Created with Sketch.</desc><path d="M17.028 15.016l-2.002 2-.004-.002-13.02 13.01-2.002-2L13.02 15.01 0 2.002 2.003 0l13.02 13.01.003-.003 2.002 2-.003.005.003.004z" fill="#fff"/></svg><svg width="27" height="40" viewBox="-5 -5 27 40" id="arrowprev" y="40"><title>arrowprev</title><desc>Created with Sketch.</desc><path d="M2.002 13.007C2.006 13.01 15.025 0 15.025 0l2.003 2-13.02 13.012 13.02 13.01-2.003 2.002-13.02-13.01C2.003 17.017 0 15.016 0 15.016c0-.008 2.002-2.01 2.002-2.01z" fill="#fff"/></svg><svg width="171" height="33" viewBox="-5 -5 171 33" id="bestwithie" y="80"><title>bestwithie</title><desc>Created with Sketch.</desc><g transform="translate(1 1)" fill="#fff"><path d="M21.68 12.173H7.735c-.028.98.26 1.835.85 2.59 1.328 1.696 3.665 2.17 5.635 1.146.69-.36 1.265-.846 1.667-1.513.058-.096.116-.152.24-.15 1.702.004 3.403.003 5.104.005.02 0 .038.008.08.02-.02.068-.032.14-.06.205-1.327 3.236-3.71 5.258-7.19 5.965-2.137.434-4.23.227-6.244-.62-.14-.06-.245-.04-.37.025-.846.44-1.72.81-2.643 1.062-.687.186-1.385.31-2.098.256-.355-.028-.718-.08-1.054-.19-.997-.33-1.597-1.016-1.785-2.046-.134-.734-.092-1.465.03-2.193.26-1.557.82-3.015 1.52-4.424 1.177-2.367 2.697-4.5 4.567-6.386.316-.32.657-.615.987-.922.074-.07.15-.138.205-.244-.072.032-.146.06-.216.095-1.026.52-1.93 1.21-2.762 1.985-.59.55-1.137 1.142-1.703 1.717-.065.066-.126.136-.23.19.022-.09.042-.18.07-.27 1.242-3.92 3.903-6.29 8.006-7.056.563-.104 1.147-.108 1.722-.126.252-.008.478-.052.706-.153C13.942.62 15.152.204 16.422-.027c.84-.152 1.686-.21 2.537-.085 1.694.244 2.363 1.435 2.514 2.587.125.955-.07 1.872-.365 2.772-.122.37-.273.733-.418 1.117.678 1.264 1.04 2.63 1.113 4.072.035.673-.025 1.454-.125 1.738m-5.404-2.608c0-.082.005-.146 0-.21-.108-1.215-.635-2.222-1.632-2.943-1.506-1.09-3.11-1.1-4.713-.23C8.784 6.8 8.04 7.757 7.78 9.044c-.034.168-.073.34-.018.52h8.516m-9.32 9.843C4.852 18.193 3.49 16.43 2.638 14.22c-.05.078-.084.12-.108.166-.363.696-.675 1.413-.885 2.168-.192.694-.31 1.396-.19 2.12.143.87.696 1.513 1.51 1.685.283.058.584.08.872.06 1.1-.086 2.098-.502 3.12-1.012m8.57-17.488c.287.125.53.223.768.336.23.108.456.224.676.35.23.13.454.266.672.413.218.146.43.3.636.465.205.163.403.336.594.515.184.173.362.354.53.542.175.194.34.397.502.603.155.2.3.408.468.64.244-.538.422-1.045.544-1.572.094-.41.14-.825.102-1.245-.073-.805-.483-1.38-1.253-1.67-.26-.097-.546-.15-.824-.176-.666-.062-1.315.062-1.952.247-.487.14-.965.307-1.46.55"/><path d="M27.943 3.804h1.586v13.54h-1.587V3.805zm12.48 7.62c0-1.27-.277-2.254-.834-2.946-.558-.692-1.37-1.04-2.433-1.04-1.39 0-2.45.615-3.173 1.843h-.037V7.676h-1.55v9.67h1.55V11.83c0-.888.253-1.62.76-2.2.507-.58 1.147-.87 1.92-.87 1.5 0 2.25 1.024 2.25 3.07v5.514h1.547v-5.92m6.92 4.504c-.283.208-.617.312-1 .312-.517 0-.886-.137-1.106-.41-.22-.275-.33-.736-.33-1.384V8.988h2.436V7.675h-2.436v-2.86c-.542.176-1.058.342-1.55.5v2.36H41.7v1.313h1.66v5.722c0 1.9.845 2.852 2.532 2.852.604 0 1.09-.104 1.454-.312v-1.322m9.28-3.843c0-1.404-.327-2.515-.982-3.333-.693-.875-1.694-1.313-3.003-1.313-1.222 0-2.254.446-3.098 1.34-.9.957-1.35 2.213-1.35 3.768 0 1.643.415 2.905 1.246 3.786.775.83 1.823 1.247 3.145 1.247 1.397 0 2.518-.31 3.36-.934V15.2c-.905.706-1.903 1.06-2.992 1.06-.97 0-1.73-.29-2.284-.87-.554-.58-.844-1.41-.87-2.493h6.828v-.812zm-6.808-.5c.12-.844.434-1.525.944-2.045s1.13-.78 1.86-.78c.775 0 1.373.256 1.794.766.403.49.61 1.177.624 2.06h-5.222zM63.45 7.638c-.21-.09-.517-.133-.926-.133-.548 0-1.042.177-1.483.53-.47.383-.82.928-1.047 1.633h-.038V7.675h-1.548v9.67h1.548v-4.93c0-1.12.243-1.998.727-2.634.428-.566.957-.85 1.587-.85.515 0 .908.105 1.18.313V7.638m9.194 3.786c0-1.27-.278-2.254-.836-2.946-.557-.692-1.367-1.04-2.43-1.04-1.392 0-2.45.615-3.174 1.843h-.037V7.676h-1.55v9.67h1.55V11.83c0-.888.253-1.62.76-2.2.506-.58 1.147-.87 1.92-.87 1.5 0 2.25 1.024 2.25 3.07v5.514h1.547v-5.92m10.13.66c0-1.403-.327-2.514-.982-3.332C81.1 7.877 80.1 7.44 78.79 7.44c-1.222 0-2.254.446-3.098 1.34-.9.957-1.35 2.213-1.35 3.768 0 1.643.415 2.905 1.246 3.786.775.83 1.823 1.247 3.145 1.247 1.397 0 2.518-.31 3.36-.934V15.2c-.905.706-1.903 1.06-2.992 1.06-.97 0-1.73-.29-2.284-.87-.554-.58-.844-1.41-.87-2.493h6.828v-.812zm-6.808-.5c.12-.843.434-1.524.944-2.044s1.13-.78 1.86-.78c.775 0 1.373.256 1.795.766.402.49.61 1.177.623 2.06h-5.222zm13.076 4.344c-.283.208-.617.312-1 .312-.517 0-.885-.137-1.106-.41-.22-.275-.33-.736-.33-1.384V8.988h2.436V7.675h-2.436v-2.86c-.54.176-1.058.342-1.55.5v2.36h-1.66v1.313h1.66v5.722c0 1.9.845 2.852 2.532 2.852.604 0 1.09-.104 1.454-.312v-1.322m13.782-.02h-5.59v-4.73h4.892V9.743h-4.892V5.24h5.28V3.803h-6.866v13.54h7.176V15.91m7.27-8.235l-1.974 3.305-.444.756h-.038c-.157-.31-.293-.56-.406-.756l-1.88-3.305h-1.793l3.153 4.93-3.286 4.74h1.775l1.936-3.135c.27-.435.418-.68.443-.737h.04c.182.327.323.573.424.737l1.898 3.134h1.794l-3.19-4.777 3.247-4.892h-1.7m10.952 1.162c-.705-.932-1.7-1.398-2.984-1.398-1.466 0-2.58.645-3.342 1.935h-.038v-1.7h-1.548v14.117h1.548v-5.836h.038c.66 1.083 1.627 1.625 2.9 1.625 1.396 0 2.492-.512 3.285-1.54.75-.968 1.124-2.243 1.124-3.823 0-1.397-.328-2.524-.982-3.38zm-1.426 6.383c-.53.692-1.254 1.04-2.173 1.04-.818 0-1.492-.29-2.02-.87-.498-.548-.747-1.212-.747-1.993v-1.35c0-.906.252-1.668.756-2.285.56-.667 1.306-1 2.238-1 .85 0 1.523.305 2.02.915.498.61.746 1.45.746 2.52 0 1.298-.274 2.305-.82 3.023zm4.322-12.19h1.548v14.315h-1.548V3.03zm11.768 5.75c-.81-.894-1.934-1.34-3.376-1.34-1.467 0-2.638.427-3.513 1.284-.943.92-1.415 2.218-1.415 3.9 0 1.472.416 2.66 1.247 3.56.85.93 2 1.397 3.455 1.397 1.474 0 2.645-.465 3.513-1.397.87-.93 1.303-2.168 1.303-3.71 0-1.568-.404-2.8-1.213-3.693zm-1.157 6.487c-.535.66-1.312.992-2.332.992-.98 0-1.765-.327-2.35-.98-.586-.65-.88-1.555-.88-2.713 0-1.234.307-2.188.917-2.86.58-.63 1.35-.946 2.314-.946.976 0 1.735.313 2.277.936.56.648.84 1.593.84 2.833 0 1.182-.26 2.095-.784 2.737zm9.327-7.63c-.207-.088-.516-.132-.925-.132-.548 0-1.042.177-1.482.53-.473.383-.822.928-1.05 1.633h-.036V7.675h-1.55v9.67h1.55v-4.93c0-1.12.242-1.998.727-2.634.428-.566.957-.85 1.586-.85.516 0 .91.105 1.18.313V7.638m8.648 4.447c0-1.404-.327-2.515-.982-3.333-.693-.875-1.694-1.313-3.003-1.313-1.22 0-2.253.446-3.097 1.34-.9.957-1.35 2.213-1.35 3.768 0 1.643.415 2.905 1.246 3.786.774.83 1.823 1.247 3.145 1.247 1.397 0 2.518-.31 3.36-.934V15.2c-.905.706-1.903 1.06-2.992 1.06-.97 0-1.73-.29-2.285-.87-.554-.58-.844-1.41-.87-2.493h6.828v-.812zm-6.808-.5c.12-.844.434-1.525.944-2.045s1.13-.78 1.86-.78c.775 0 1.373.256 1.794.766.403.49.61 1.177.624 2.06h-5.222zm13.633-3.947c-.208-.09-.516-.133-.925-.133-.548 0-1.042.177-1.483.53-.472.383-.82.928-1.048 1.633h-.038V7.675h-1.55v9.67h1.55v-4.93c0-1.12.242-1.998.726-2.634.428-.566.957-.85 1.587-.85.516 0 .91.105 1.18.313V7.638"/></g></svg><svg width="174" height="50" viewBox="-5 -5 174 50" id="bing" y="113"><title>bing</title><desc>Created with Sketch.</desc><g transform="translate(-12 -30)" fill="#fff"><path d="M67.03 52.392c0 2.793-.648 5.035-1.937 6.733-1.302 1.7-3.052 2.557-5.254 2.557-2.078 0-3.642-.944-4.724-2.82h-.064v2.405h-2.52V36.51l2.52.824V47.48h.064c1.243-2.235 3.054-3.353 5.447-3.353 1.967 0 3.544.747 4.712 2.224 1.166 1.486 1.756 3.5 1.756 6.042m-2.59-.026c0-1.807-.4-3.255-1.2-4.333-.798-1.076-1.903-1.616-3.312-1.616-1.445 0-2.625.533-3.517 1.6-.903 1.075-1.358 2.43-1.358 4.08v2.34c0 1.404.437 2.586 1.305 3.528.86.944 1.933 1.42 3.2 1.42 1.525 0 2.717-.616 3.586-1.865.864-1.234 1.298-2.96 1.298-5.154"/><path d="M73.298 38.92c0 .508-.164.924-.49 1.25-.333.336-.722.5-1.173.5-.463 0-.85-.155-1.17-.477-.32-.32-.48-.748-.48-1.273 0-.46.154-.87.475-1.213.308-.34.7-.512 1.175-.512.472 0 .868.17 1.182.505.32.334.48.744.48 1.22"/><path d="M70.337 44.544h2.53v16.722h-2.53V44.544z"/><path d="M90.124 61.267h-2.527v-9.54c0-3.542-1.218-5.31-3.662-5.31-1.242 0-2.275.49-3.116 1.495-.837 1-1.254 2.268-1.254 3.814v9.54H77.04V44.545h2.526v2.777h.055c1.188-2.123 2.91-3.193 5.182-3.193 1.733 0 3.05.607 3.957 1.802.906 1.192 1.364 2.9 1.364 5.097v10.24"/><path d="M108 59.923c0 6.125-2.774 9.193-8.31 9.193-1.93 0-3.632-.386-5.104-1.167l.657-2.31c1.55.855 2.79 1.206 4.402 1.206 3.89 0 5.834-2.18 5.834-6.544v-1.846h-.064c-1.2 2.14-3.01 3.226-5.416 3.226-1.27 0-2.41-.34-3.403-1.022-.994-.678-1.76-1.638-2.313-2.88-.538-1.257-.807-2.698-.807-4.342 0-2.85.652-5.116 1.96-6.788 1.31-1.678 3.06-2.523 5.25-2.523 2.13 0 3.7.907 4.73 2.72h.062v-2.303H108v15.38zm-2.52-6.22V51.24c0-1.35-.438-2.498-1.307-3.428-.874-.936-1.916-1.395-3.125-1.395-1.57 0-2.795.605-3.672 1.816-.88 1.21-1.318 2.898-1.318 5.053 0 1.82.425 3.3 1.265 4.42.84 1.12 1.962 1.68 3.364 1.68 1.407 0 2.56-.532 3.455-1.6.89-1.047 1.337-2.417 1.337-4.083z"/><path d="M23.054 40.17l3.687 8.527 5.606 2.703L12 62.822l8.39 6.254 21.09-13.32v-9.57L23.053 40.17"/><path d="M20.39 32.713L12 30v32.822l8.39-8.033V32.712"/><path d="M127.766 44.25c0-.708-.107-1.336-.32-1.883-.214-.547-.514-1.005-.9-1.375-.385-.37-.848-.648-1.39-.836-.54-.187-1.14-.28-1.797-.28-1 0-1.962.236-2.883.71-.922.474-1.79 1.107-2.602 1.898v-2.218c.792-.677 1.656-1.203 2.594-1.578.936-.376 1.994-.563 3.17-.563.188 0 .368.01.54.03.172.022.34.053.507.095.77.083 1.472.28 2.102.586.63.307 1.168.706 1.616 1.195.448.49.795 1.072 1.04 1.743.244.672.367 1.42.367 2.243 0 .958-.125 1.817-.375 2.578-.25.76-.607 1.46-1.07 2.1-.464.642-1.022 1.246-1.673 1.814-.65.568-1.377 1.138-2.18 1.71-.895.647-1.663 1.217-2.304 1.712-.64.494-1.17.966-1.593 1.414-.422.448-.742.896-.96 1.343-.22.448-.36.948-.423 1.5-.052.146-.086.292-.1.438-.017.146-.025.307-.025.484h11.156v1.796H117v-1.078c0-1 .117-1.867.352-2.6.234-.736.6-1.423 1.1-2.064.5-.64 1.142-1.28 1.923-1.914.78-.635 1.72-1.35 2.813-2.14.74-.542 1.395-1.066 1.968-1.57.573-.506 1.052-1.027 1.438-1.563.385-.537.677-1.107.875-1.71.197-.606.296-1.277.296-2.017zm11.718 17.03c-1.073 0-2.03-.238-2.875-.718-.844-.48-1.56-1.184-2.15-2.117-.588-.932-1.036-2.09-1.343-3.476-.307-1.387-.46-2.986-.46-4.798 0-3.98.627-6.982 1.882-9.008 1.254-2.026 3.064-3.04 5.43-3.04 4.5 0 6.75 3.83 6.75 11.485 0 1.895-.163 3.567-.486 5.015-.323 1.448-.794 2.667-1.414 3.656-.62.99-1.377 1.738-2.273 2.243-.896.506-1.917.758-3.063.758zm.36-21.405c-1.667 0-2.938.844-3.813 2.53-.874 1.69-1.31 4.225-1.31 7.61 0 3.126.418 5.498 1.257 7.118.838 1.62 2.08 2.43 3.726 2.43.802 0 1.513-.21 2.133-.633.62-.422 1.138-1.042 1.555-1.86.417-.817.732-1.83.946-3.04.213-1.207.32-2.598.32-4.17 0-6.657-1.604-9.985-4.812-9.985zm14.937 21.03v-20.03c-.363.313-.772.615-1.225.906-.453.293-.917.566-1.39.822-.475.255-.95.484-1.423.687-.474.202-.914.37-1.32.507V42.03c1.23-.395 2.404-.94 3.523-1.632 1.12-.692 2.206-1.492 3.258-2.398h.578v22.906h-2zM172.5 38.5v15.03h3.5v1.814h-3.5v5.562h-1.984v-5.562h-10.61V53.53c.99-1.124 1.992-2.324 3.008-3.6 1.016-1.276 1.987-2.573 2.914-3.89.927-1.32 1.78-2.62 2.563-3.907.782-1.287 1.438-2.498 1.97-3.633h2.14zm-1.984 15.03V41.704c-.77 1.333-1.537 2.576-2.297 3.727-.762 1.15-1.5 2.218-2.212 3.203-.714.984-1.396 1.883-2.047 2.695-.65.813-1.246 1.547-1.788 2.203h8.344z" opacity=".5"/></g></svg><svg width="173" height="50" viewBox="-5 -5 173 50" id="bing2015" y="163"><title>bing2015</title><desc>Created with Sketch.</desc><g transform="translate(-10 -147) translate(10 147)" fill="#fff"><path d="M55.03 22.392c0 2.793-.648 5.035-1.937 6.733-1.302 1.7-3.052 2.557-5.254 2.557-2.078 0-3.642-.944-4.724-2.82h-.064v2.405h-2.52V6.51l2.52.824V17.48h.064c1.243-2.235 3.054-3.353 5.447-3.353 1.967 0 3.544.747 4.712 2.224 1.166 1.486 1.756 3.5 1.756 6.042m-2.59-.026c0-1.807-.4-3.255-1.2-4.333-.798-1.076-1.903-1.616-3.312-1.616-1.445 0-2.625.533-3.517 1.6-.903 1.075-1.358 2.43-1.358 4.08v2.34c0 1.404.437 2.586 1.305 3.528.86.944 1.933 1.42 3.2 1.42 1.525 0 2.717-.616 3.586-1.865.864-1.234 1.298-2.96 1.298-5.154"/><path d="M61.298 8.92c0 .508-.164.924-.49 1.25-.333.336-.722.5-1.173.5-.463 0-.85-.155-1.17-.477-.32-.32-.48-.748-.48-1.273 0-.46.154-.87.475-1.213.308-.34.7-.512 1.175-.512.472 0 .868.17 1.182.505.32.334.48.744.48 1.22"/><path d="M58.337 14.544h2.53v16.722h-2.53V14.544z"/><path d="M78.124 31.267h-2.527v-9.54c0-3.542-1.218-5.31-3.662-5.31-1.242 0-2.275.49-3.116 1.495-.837 1-1.254 2.268-1.254 3.814v9.54H65.04V14.545h2.526v2.777h.055c1.188-2.123 2.91-3.193 5.182-3.193 1.733 0 3.05.607 3.957 1.802.906 1.192 1.364 2.9 1.364 5.097v10.24"/><path d="M96 29.923c0 6.125-2.774 9.193-8.31 9.193-1.93 0-3.632-.386-5.104-1.167l.657-2.31c1.55.855 2.79 1.206 4.402 1.206 3.89 0 5.834-2.18 5.834-6.544v-1.846h-.064c-1.2 2.14-3.01 3.226-5.416 3.226-1.27 0-2.41-.34-3.403-1.022-.994-.678-1.76-1.638-2.313-2.88-.538-1.257-.807-2.698-.807-4.342 0-2.85.652-5.116 1.96-6.788 1.31-1.678 3.06-2.523 5.25-2.523 2.13 0 3.7.907 4.73 2.72h.062v-2.303H96v15.38zm-2.52-6.22V21.24c0-1.35-.438-2.498-1.307-3.428-.874-.936-1.916-1.395-3.125-1.395-1.57 0-2.795.605-3.672 1.816-.88 1.21-1.318 2.898-1.318 5.053 0 1.82.425 3.3 1.265 4.42.84 1.12 1.962 1.68 3.364 1.68 1.407 0 2.56-.532 3.455-1.6.89-1.047 1.337-2.417 1.337-4.083z"/><path d="M11.054 10.17l3.687 8.527 5.606 2.703L0 32.822l8.39 6.254 21.09-13.32v-9.57L11.053 10.17"/><path d="M8.39 2.713L0 0v32.822l8.39-8.033V2.712"/><path d="M116.093 14.403c0-.704-.106-1.328-.318-1.87-.212-.545-.51-1-.893-1.368-.383-.367-.844-.644-1.382-.83-.538-.187-1.133-.28-1.786-.28-.993 0-1.948.235-2.865.706-.917.472-1.778 1.1-2.586 1.888v-2.205c.787-.673 1.646-1.196 2.578-1.568.93-.373 1.982-.56 3.152-.56.186 0 .365.01.536.032.17.02.34.052.504.093.766.083 1.462.277 2.09.582.625.306 1.16.702 1.606 1.188.445.487.79 1.064 1.033 1.732.243.667.364 1.41.364 2.228 0 .952-.124 1.806-.372 2.562-.25.756-.603 1.452-1.064 2.088-.46.637-1.013 1.237-1.66 1.802-.647.564-1.37 1.13-2.167 1.7-.89.642-1.653 1.21-2.29 1.7-.637.492-1.164.96-1.584 1.406-.42.445-.738.89-.956 1.335-.217.445-.357.942-.42 1.49-.05.146-.084.29-.1.435-.015.145-.023.306-.023.482h11.088v1.785h-13.183v-1.07c0-.995.116-1.857.35-2.586.232-.73.597-1.414 1.094-2.05.496-.638 1.132-1.272 1.91-1.903.775-.632 1.707-1.34 2.794-2.128.735-.54 1.387-1.06 1.956-1.56.57-.503 1.046-1.02 1.43-1.554.382-.533.672-1.1.868-1.7.197-.6.295-1.268.295-2.003zm11.64 16.925c-1.066 0-2.02-.238-2.857-.714-.84-.476-1.55-1.178-2.135-2.104-.584-.927-1.03-2.078-1.335-3.455-.305-1.377-.458-2.966-.458-4.767 0-3.955.624-6.94 1.87-8.952 1.25-2.014 3.047-3.02 5.397-3.02 4.472 0 6.708 3.804 6.708 11.413 0 1.883-.16 3.544-.48 4.983-.322 1.44-.79 2.65-1.406 3.634-.616.983-1.37 1.726-2.26 2.228-.89.502-1.904.753-3.043.753zm.357-21.273c-1.656 0-2.92.838-3.79 2.515-.868 1.677-1.303 4.198-1.303 7.562 0 3.106.417 5.464 1.25 7.073.833 1.61 2.068 2.415 3.703 2.415.797 0 1.504-.21 2.12-.63.616-.418 1.13-1.034 1.545-1.847.414-.812.727-1.82.94-3.02.212-1.2.318-2.583.318-4.146 0-6.615-1.594-9.922-4.783-9.922zm14.845 20.9V11.05c-.362.31-.77.61-1.22.9-.45.29-.91.56-1.38.814-.472.254-.943.482-1.414.684-.47.202-.908.37-1.31.504v-1.754c1.22-.394 2.387-.935 3.5-1.623s2.192-1.483 3.238-2.383h.574v22.763h-1.987zm7.795-2.67c1.48.89 2.96 1.335 4.44 1.335.85 0 1.616-.124 2.3-.373.682-.248 1.264-.6 1.746-1.056.48-.454.85-1.003 1.11-1.644.26-.642.388-1.35.388-2.128 0-1.635-.502-2.883-1.506-3.742-1.004-.86-2.484-1.29-4.44-1.29-.788 0-1.916.063-3.386.187l.683-10.885h9.705v1.802h-8.012l-.466 7.22c.9-.062 1.615-.093 2.143-.093 1.18 0 2.223.153 3.13.458.904.305 1.668.743 2.29 1.312.62.57 1.09 1.263 1.412 2.08.32.82.48 1.745.48 2.78 0 1.056-.17 2.02-.51 2.89-.343.868-.84 1.613-1.492 2.235-.652.62-1.454 1.102-2.406 1.444-.954.34-2.036.512-3.247.512-1.832 0-3.287-.29-4.363-.87v-2.173z" opacity=".5"/></g></svg><svg width="144" height="65" viewBox="-5 -5 144 65" id="bingbig" y="213"><title>bing</title><desc>Created with Sketch.</desc><g fill="#fff"><path d="M76.647 31.294c0 3.852-.897 6.945-2.68 9.287-1.8 2.345-4.22 3.527-7.263 3.527-2.87 0-5.033-1.302-6.53-3.89h-.087v3.318h-3.484V9.39l3.484 1.135V24.52h.088c1.718-3.084 4.222-4.625 7.53-4.625 2.72 0 4.9 1.03 6.514 3.067 1.612 2.05 2.427 4.828 2.427 8.332m-3.58-.036c0-2.492-.554-4.49-1.66-5.975-1.104-1.485-2.632-2.23-4.58-2.23-1.997 0-3.628.735-4.862 2.21-1.25 1.48-1.878 3.35-1.878 5.625v3.227c0 1.936.604 3.566 1.804 4.866 1.19 1.303 2.673 1.96 4.426 1.96 2.107 0 3.755-.85 4.956-2.573 1.194-1.702 1.794-4.082 1.794-7.11"/><path d="M85.31 12.713c0 .7-.226 1.274-.678 1.724-.46.463-.997.69-1.62.69-.64 0-1.176-.214-1.616-.66-.446-.44-.666-1.03-.666-1.754 0-.636.214-1.2.657-1.672.426-.47.97-.706 1.625-.706.652 0 1.2.234 1.634.696.442.46.665 1.027.665 1.683"/><path d="M81.217 20.47h3.498v23.064h-3.498V20.47z"/><path d="M108.572 43.535h-3.493v-13.16c0-4.883-1.685-7.322-5.065-7.322-1.716 0-3.145.678-4.306 2.062-1.157 1.38-1.734 3.128-1.734 5.26v13.16h-3.49V20.47h3.49v3.83h.076c1.64-2.93 4.022-4.405 7.163-4.405 2.395 0 4.215.837 5.47 2.486 1.254 1.646 1.887 4 1.887 7.03v14.125"/><path d="M133.284 41.68c0 8.45-3.834 12.68-11.487 12.68-2.67 0-5.02-.533-7.057-1.61l.91-3.185c2.14 1.18 3.857 1.665 6.084 1.665 5.378 0 8.065-3.007 8.065-9.027v-2.546h-.087c-1.66 2.954-4.16 4.45-7.488 4.45-1.755 0-3.33-.47-4.704-1.41-1.374-.934-2.434-2.258-3.197-3.972-.743-1.734-1.116-3.72-1.116-5.99 0-3.928.902-7.055 2.71-9.36 1.81-2.315 4.23-3.48 7.257-3.48 2.947 0 5.117 1.25 6.54 3.752h.085V20.47h3.484v21.21zm-3.485-8.578v-3.395c0-1.865-.605-3.446-1.805-4.73-1.21-1.29-2.65-1.924-4.322-1.924-2.17 0-3.863.835-5.075 2.504-1.218 1.67-1.822 3.998-1.822 6.97 0 2.51.587 4.55 1.748 6.096 1.163 1.547 2.712 2.318 4.65 2.318 1.946 0 3.542-.734 4.777-2.205 1.233-1.446 1.85-3.335 1.85-5.633z"/><path d="M15.85 14.437l5.098 11.76 7.748 3.73L.57 45.68l11.597 8.625 29.156-18.37v-13.2L15.85 14.436"/><path d="M12.167 4.152L.57.41v45.27L12.167 34.6V4.15"/></g></svg><svg width="109" height="51" viewBox="-5 -5 109 51" id="binghome" y="278"><title>binghome</title><desc>Created with Sketch.</desc><g fill="#fff"><path d="M56.373 22.966c0 2.864-.664 5.165-1.985 6.906-1.334 1.743-3.127 2.622-5.382 2.622-2.127 0-3.73-.968-4.838-2.893h-.066v2.47H41.52V6.677l2.582.844V17.93h.066c1.273-2.294 3.128-3.44 5.58-3.44 2.015 0 3.63.766 4.826 2.28 1.195 1.524 1.8 3.59 1.8 6.196m-2.654-.027c0-1.854-.41-3.34-1.23-4.444-.818-1.104-1.95-1.658-3.393-1.658-1.48 0-2.69.546-3.603 1.642-.926 1.1-1.392 2.492-1.392 4.184v2.4c0 1.44.448 2.652 1.337 3.618.88.968 1.98 1.458 3.278 1.458 1.56 0 2.782-.634 3.672-1.914.885-1.266 1.33-3.035 1.33-5.287"/><path d="M62.793 9.15c0 .52-.168.946-.503 1.28-.34.345-.74.514-1.2.514-.475 0-.872-.16-1.198-.49-.33-.33-.493-.766-.493-1.305 0-.474.157-.893.486-1.245.316-.35.718-.526 1.204-.526.483 0 .888.173 1.21.517.328.343.493.764.493 1.252"/><path d="M59.76 14.917h2.59v17.15h-2.59v-17.15z"/><path d="M80.03 32.07h-2.59v-9.787c0-3.63-1.247-5.445-3.75-5.445-1.273 0-2.33.504-3.192 1.533-.857 1.026-1.284 2.328-1.284 3.913v9.786h-2.587V14.916h2.587v2.848h.056c1.217-2.178 2.98-3.276 5.308-3.276 1.775 0 3.123.622 4.054 1.848.93 1.223 1.397 2.975 1.397 5.228V32.07"/><path d="M98.34 30.69c0 6.282-2.84 9.43-8.51 9.43-1.98 0-3.722-.397-5.23-1.198l.674-2.37c1.586.88 2.86 1.24 4.51 1.24 3.984 0 5.975-2.237 5.975-6.713v-1.895h-.065c-1.23 2.197-3.083 3.31-5.548 3.31-1.3 0-2.468-.35-3.486-1.05-1.018-.694-1.803-1.678-2.37-2.953-.55-1.29-.826-2.766-.826-4.453 0-2.923.668-5.248 2.007-6.963 1.344-1.722 3.136-2.588 5.38-2.588 2.183 0 3.792.93 4.845 2.79h.064v-2.363h2.58V30.69zm-2.58-6.38v-2.524c0-1.387-.45-2.563-1.338-3.518-.896-.96-1.964-1.43-3.202-1.43-1.61 0-2.863.62-3.76 1.862-.904 1.24-1.352 2.973-1.352 5.183 0 1.866.436 3.384 1.296 4.533.862 1.15 2.01 1.724 3.446 1.724 1.44 0 2.624-.546 3.54-1.64.912-1.076 1.37-2.48 1.37-4.19z"/><path d="M11.323 10.43l3.777 8.747 5.742 2.772L0 33.663l8.594 6.414 21.604-13.66V16.6l-18.875-6.17"/><path d="M8.594 2.782L0 0v33.664l8.594-8.24V2.782"/></g></svg><svg width="116" height="54" viewBox="-5 -5 116 54" id="bingmed" y="329"><title>bing</title><desc>Created with Sketch.</desc><g fill="#fff"><path d="M60.63 25.035c0 3.082-.708 5.556-2.12 7.43-1.422 1.875-3.336 2.82-5.744 2.82-2.27 0-3.98-1.04-5.165-3.112h-.07v2.655h-2.755V7.512l2.756.908v11.196h.07c1.36-2.467 3.34-3.7 5.958-3.7 2.15 0 3.876.824 5.153 2.453 1.277 1.64 1.92 3.862 1.92 6.665m-2.83-.03c0-1.992-.44-3.59-1.313-4.78-.874-1.186-2.083-1.782-3.623-1.782-1.58 0-2.87.587-3.847 1.766-.99 1.184-1.486 2.68-1.486 4.5v2.582c0 1.55.48 2.853 1.428 3.893.94 1.04 2.114 1.568 3.5 1.568 1.668 0 2.97-.682 3.92-2.06.946-1.36 1.42-3.265 1.42-5.687"/><path d="M67.485 10.17c0 .56-.18 1.02-.537 1.38-.364.37-.79.552-1.282.552-.506 0-.93-.172-1.278-.527-.353-.354-.527-.825-.527-1.405 0-.508.17-.958.52-1.337.338-.377.768-.566 1.286-.566.516 0 .95.187 1.293.557.348.37.525.82.525 1.346"/><path d="M64.246 16.376h2.767v18.45h-2.767v-18.45z"/><path d="M85.885 34.828h-2.763V24.3c0-3.906-1.332-5.857-4.005-5.857-1.358 0-2.488.54-3.407 1.65-.914 1.102-1.37 2.502-1.37 4.208V34.83h-2.762V16.376h2.76v3.064h.06c1.3-2.343 3.183-3.524 5.667-3.524 1.895 0 3.335.67 4.328 1.988.992 1.317 1.492 3.2 1.492 5.625v11.298"/><path d="M105.434 33.345c0 6.758-3.033 10.143-9.087 10.143-2.113 0-3.972-.426-5.583-1.288l.72-2.548c1.694.944 3.052 1.332 4.813 1.332 4.255 0 6.38-2.406 6.38-7.22v-2.038h-.068c-1.314 2.363-3.293 3.56-5.924 3.56-1.39 0-2.635-.377-3.722-1.128-1.088-.748-1.926-1.807-2.53-3.178-.587-1.387-.882-2.976-.882-4.79 0-3.144.713-5.646 2.143-7.49 1.433-1.852 3.346-2.784 5.74-2.784 2.332 0 4.05 1 5.174 3.002h.067v-2.542h2.757v16.97zm-2.757-6.863v-2.716c0-1.493-.478-2.758-1.428-3.784-.957-1.033-2.097-1.54-3.42-1.54-1.716 0-3.055.668-4.014 2.004-.963 1.335-1.44 3.198-1.44 5.576 0 2.007.463 3.64 1.382 4.877.92 1.236 2.145 1.853 3.678 1.853 1.54 0 2.802-.588 3.78-1.765.974-1.157 1.46-2.668 1.46-4.506z"/><path d="M12.54 11.55l4.03 9.41 6.13 2.98L.45 36.545l9.175 6.9L32.688 28.75V18.186l-20.15-6.637"/><path d="M9.625 3.322L.45.328v36.216l9.175-8.864V3.322"/></g></svg><svg width="48" height="48" viewBox="-5 -5 48 48" id="close" y="383"><title>close</title><desc>Created with Sketch.</desc><g transform="translate(1 1)" fill="none"><path d="M16.586 18l-3.536-3.536 1.414-1.414L18 16.586l3.536-3.536 1.414 1.414L19.414 18l3.536 3.536-1.414 1.414L18 19.414l-3.536 3.536-1.414-1.414L16.586 18z" fill="#fff"/><path d="M18 36c9.94 0 18-8.06 18-18S27.94 0 18 0 0 8.06 0 18s8.06 18 18 18" stroke="#fff" stroke-width="2"/></g></svg><svg width="38" height="38" viewBox="-5 -5 38 38" id="closelist" y="431"><title>closelist</title><desc>Created with Sketch.</desc><g transform="translate(-653 -361) translate(653 361)" fill="#fff"><path d="M13.125 14.375L10 11.25 11.25 10l3.125 3.125L17.5 10l1.25 1.25-3.125 3.125L18.75 17.5l-1.25 1.25-3.125-3.125-3.125 3.125L10 17.5l3.125-3.125z"/><path d="M14 28c7.732 0 14-6.268 14-14S21.732 0 14 0 0 6.268 0 14s6.268 14 14 14" fill-opacity=".01"/></g></svg><svg width="33" height="33" viewBox="-5 -5 33 33" id="correct" y="469"><title>correct</title><desc>Created with Sketch.</desc><path d="M9.423 22.35L22.413 2.23 20.343.35 8.963 18.125l-6.75-6.147-1.8 2.166 9.01 8.203z" fill="#fff"/></svg><svg width="29" height="21" viewBox="-5 -5 29 21" id="downarrow" y="502"><title>downarrow</title><desc>Created with Sketch.</desc><path d="M18.69 1.5L17.16-.032 9.5 7.628 1.84-.033.31 1.5l9.19 9.19.766-.765L18.69 1.5z" fill="#fff"/></svg><svg baseProfile="full" height="15" width="18" viewBox="-5 -5 18 15" id="downarrowsmall" y="523"><path fill="rgb( 255, 255, 255 )" d="M4.497 4.99L.997.993h7l-3.5 4z"/></svg><svg baseProfile="full" height="27" width="26" viewBox="-5 -5 26 27" id="facebook" y="538"><path fill="rgb( 255, 255, 255 )" d="M16 14.32V17h-5.042v-5.74h2.113v-2.5H10.96V7.45c0-.327.122-.565.534-.565h1.58V4.06h-1.765c-1.818 0-3.24 1.514-3.24 3.445V8.76H6.152v2.5h1.913V17H0v-6.214h.007V5.43H0V1h1.902c.035-.002.067-.01.102-.01H13.99c.035 0 .068.008.102.01H16v2.68h-.012v10.64H16z"/></svg><svg width="51" height="99" viewBox="-5 -5 51 99" id="goldenglobe" y="565"><title>goldenglobe</title><desc>Created with Sketch.</desc><g transform="translate(-284 -522) translate(284 522)" fill="#fff"><path d="M20.75 88.994H3.276c-.296 0-.59.006-.887-.002C.76 88.952.428 88.5.935 86.966c.687-2.076 1.387-4.148 2.094-6.218.387-1.14.398-1.145 1.6-1.146 5.022-.004 10.044-.002 15.067-.002h17.22c1.386 0 1.386.006 1.833 1.348.704 2.117 1.42 4.23 2.11 6.35.354 1.09.025 1.57-1.12 1.68-.376.037-.76.016-1.138.016H20.75"/><path d="M20.54 34.552c3.206 0 6.413-.005 9.62.007.315 0 .73-.143.912.237.165.348-.128.64-.302.912-.666 1.038-1.686 1.636-2.782 2.102-.778.33-1.558.65-2.244 1.146-1.146.83-1.19 1.685-.21 2.717.424.448 1.292.928 1.077 1.422-.263.605-1.194.25-1.828.258-2.954.03-5.908.013-8.862.013-.253 0-.51.025-.76-.007-.31-.04-.76.17-.892-.235-.117-.357.3-.56.507-.808.242-.29.538-.536.793-.817.783-.86.767-1.487-.086-2.276-.693-.64-1.555-1-2.415-1.35-1.07-.435-2.035-1.023-2.752-1.95-.25-.324-.632-.666-.428-1.11.193-.416.672-.254 1.03-.255 3.207-.013 6.414-.008 9.622-.008"/><path d="M20.1 2.376c3.884.205 6.935 1.732 9.165 4.798.622.856.614.926-.143 1.69-.534.536-1.105 1.037-1.652 1.562-1.033.992-2.167 1.706-3.69 1.613-.676-.042-1.19.328-1.523.945-.18.33-.42.63-.66.92-.13.155-.323.376-.48.37-.824-.022-1.875.18-2.412-.246-.697-.554-1.685-.717-2.16-1.624-.31-.59-.75-.51-1.293.087-.163.18-.25.48-.566.33-.237-.113-.382-.35-.384-.615-.004-.53.145-1 .665-1.262.632-.32 1.283-.388 1.95-.127.274.106.527.27.806.352.208.06.447.38.648.064.123-.192-.083-.39-.21-.553-.18-.234-.39-.447-.54-.697-.28-.46-.356-.938-.01-1.416.35-.483.634-.978.535-1.627-.083-.542.318-.848.713-1.098.46-.293.957-.526 1.427-.805.308-.184.485-.463.438-.844-.042-.353-.294-.482-.596-.563-.324-.087-.657-.157-.968-.28-.23-.09-.474-.232-.41-.55.05-.24.27-.322.474-.354.33-.052.67-.058.875-.074"/><path d="M20.498 30.5c-1.477 0-2.954-.005-4.432.002-.52.002-.67-.176-.47-.69.526-1.336.867-2.726 1.055-4.15.055-.408.226-.444.593-.362 2.093.472 4.184.42 6.262-.11.538-.135.784.046.826.606.1 1.31.466 2.56.908 3.794.3.84.254.9-.688.91-1.35.015-2.7.004-4.052.004V30.5"/><path d="M25.758 16.938c-.754.796-1.653 1.317-2.527 1.866-.532.335-1.115.592-1.656.916-.29.175-.844.17-.702.72.11.422.423.722.87.835.12.03.25.03.375.043 1.2.13 1.375.292 1.45 1.344.076 1.076-.424 1.89-1.364 2.07-3.58.692-6.75-.205-9.53-2.538-.182-.154-.5-.29-.425-.565.103-.374.49-.23.76-.256 4.303-.436 8.294-1.76 11.92-4.148.225-.15.41-.438.83-.288"/><path d="M20.404 34.05c-3.29 0-6.58-.003-9.87.002-.536 0-1.03.015-.975-.765.03-.456.202-.715.666-.74.295-.015.59-.02.885-.02 6.244-.002 12.486-.002 18.728 0 .295 0 .59-.003.885.02.54.046.678.416.683.886.005.524-.33.617-.753.615-.633-.003-1.265.002-1.898.002h-8.35"/><path d="M18.473 15.912c-2.012.872-4.03 1.383-6.108 1.68-.706.1-1.418.16-2.127.238-.436.048-.74-.127-.864-.552-.657-2.26-.857-4.53-.102-6.812.05-.15.06-.37.238-.397.25-.04.338.187.44.374.26.483.508.962.436 1.545-.092.756.293 1.277.878 1.692.342.243.718.457 1 .757.59.625 1.252.796 2.05.495.272-.102.543-.255.844-.1.657.34 1.375.34 2.085.41.416.04.82.154 1.23.667"/><path d="M18.22.247c4.076-.058 7.64.878 10.844 3.043.45.305.857.676 1.283 1.02.69.556.706 1.296.53 2.07-.052.235-.138.552-.38.607-.284.066-.39-.257-.533-.458-1.283-1.782-2.92-3.145-4.93-4.022-3.568-1.557-7.102-1.46-10.576.327-.262.135-.52.274-.782.41-.238.125-.498.038-.426-.2.173-.58-.22-.815-.518-1.164-.492-.575-.393-.874.343-1.037C14.845.45 16.63.18 18.22.247"/><path d="M29.784 22.196c-1.03.023-2.65-1.336-2.837-2.36-.058-.318.15-.457.336-.605.752-.6 1.527-1.174 2.27-1.787.343-.283.592-.27.805.112.438.784.973 1.458 1.844 1.806.265.107.32.338.247.627-.265 1.03-1.646 2.186-2.666 2.21"/><path d="M20.467 32.223c-1.725 0-3.45.008-5.175-.01-.338-.002-.85.148-.862-.436-.01-.44.354-.648.747-.73.244-.05.502-.04.754-.04 3.03-.002 6.06-.002 9.09 0 .376 0 .764-.04 1.105.174.267.167.455.422.392.73-.06.296-.37.303-.622.304-1.557.008-3.114.007-4.67.01h-.758"/><path d="M20.49 44.958c-2.192 0-4.386.004-6.58-.007-.264 0-.678.128-.714-.28-.037-.41.235-.705.67-.776.165-.027.336-.023.505-.023 4.05 0 8.1 0 12.15.002.21 0 .424 0 .63.04.39.078.58.405.59.733.012.472-.423.3-.668.303-1.898.017-3.796.01-5.695.01h-.886"/><path d="M31.158 12.342c.443 1.36.12 2.706-.17 4.05-.06.277-.148.37-.507.21-.88-.392-.755-.39-.99-1.194-.36-1.225.14-1.982 1.002-2.688.153-.126.215-.362.318-.547.116.056.232.112.348.17"/><path d="M10.695 6.898c-.167-.406.047-.603.16-.806.31-.565.655-.982.28-1.79-.363-.784.152-1.705.635-2.458.2-.313.37-.153.564.074.626.725.635 1.58.6 2.46-.023.585.248 1.362-.873 1.083-.27-.066-.406.248-.56.442-.255.324-.397.738-.805.996"/><path d="M31.715 15.013c.942.985 1.154 1.986 1.09 3.042-.048.8-.4.918-1.04.41-.41-.328-.733-.693-.43-1.28.316-.61.23-1.307.38-2.172"/><path d="M20.308 16.2c.152-.053.326.06.377.244.052.188-.04.308-.217.38-.154.063-.293.17-.45.214-.53.15-.513.438-.254.832.124.19.38.44.09.64-.336.236-.54-.088-.68-.323-.23-.382-.808-.785-.596-1.152.332-.576 1.117-.616 1.73-.834"/><path d="M22.318 17.257c-.072.283-.275.4-.458.236-.408-.37-.635-.88-.848-1.378-.07-.163.053-.315.22-.4.447-.232.888-.474 1.34-.694.16-.077.352-.043.436.124.078.156.032.327-.13.44-.102.07-.196.168-.31.21-.634.223-.716.594-.34 1.124.067.094.065.237.09.34"/><path d="M25.47 23.708c.46-.767.775-1.35 1.156-1.887.138-.194.127-.827.647-.415.368.292.704.66.237 1.146-.494.515-1.05.934-2.04 1.158"/><path d="M25.13 13.91c.096.31-.11.437-.278.525-.54.28-.736.616-.338 1.175.142.2.192.52-.095.65-.308.142-.42-.168-.556-.37-.023-.034-.045-.07-.06-.11-.16-.376-.63-.756-.434-1.114.276-.506.897-.713 1.42-.962.185-.088.306.065.34.205"/><path d="M17.102 18.17c.116.21.23.38.305.567.08.2.365.432 0 .616-.213.107-.428.02-.532-.19-.23-.463-.938-.84-.627-1.384.25-.44.943-.45 1.468-.567.183-.04.333.05.406.215.125.28-.083.354-.287.432-.233.09-.46.194-.733.31"/><path d="M26.618 12.337c.13.084.264.126.314.215.052.092.072.305.023.337-.676.437-.66.972-.267 1.584.11.17.032.336-.106.434-.223.16-.384.018-.502-.17-.11-.178-.215-.36-.31-.544-.16-.318-.527-.648-.23-1 .29-.34.706-.57 1.078-.857"/><path d="M15.22 17.947c.196-.005.355.033.435.206.082.18.02.362-.158.4-.722.152-.442.517-.218.892.136.23.475.51.098.728-.292.168-.517-.16-.696-.39-.1-.13-.194-.273-.266-.423-.16-.325-.59-.627-.417-.98.227-.467.813-.31 1.22-.433"/><path d="M11.924 18.64c.404-.097.726-.172 1.047-.25.232-.058.413.01.532.215.143.247-.037.343-.198.494-.443.41.187.595.24.915.03.196.21.395-.034.534-.208.118-.41-.01-.54-.185-.387-.53-.78-1.062-1.046-1.726"/><path d="M28.472 13.148c-.058.36-.186.604-.413.445-.5-.348-.784-.922-.883-1.474-.073-.407.48-.637.793-.908.09-.08.248-.123.34-.007.07.092.155.28.112.34-.427.59-.388 1.16.05 1.603"/><path d="M11.333 19.462c-.093.337.328.58.478.923.064.142.173.307-.022.433-.156.1-.327.08-.45-.046-.47-.476-.794-1.055-1.13-1.625-.057-.098-.112-.253.035-.322.298-.14.613-.266.95-.154.212.07.346.23.35.46 0 .067-.08.135-.21.332"/><path d="M10.558 20.868c-.87-.272-1.37-.956-1.75-1.753-.077-.163-.262-.396.01-.534.192-.095.447-.035.574.14.467.635.906 1.293 1.355 1.942l-.19.206"/><path d="M29.618 10.533c-.392.56.056.92.19 1.335.08.24.004.407-.2.527-.23.134-.308-.083-.378-.204-.21-.363-.414-.734-.574-1.122-.213-.515.163-.854.522-1.002.42-.173.4.24.44.467"/><path d="M30.937 10.713c-.062.292-.147.52-.416.41-.544-.222-.932-1.665-.57-2.075.137-.156.4-.35.462-.028.115.61.29 1.192.525 1.693"/><path d="M31.884 9.454c-.068.264-.13.498-.334.556-.18.052-.244-.177-.305-.31-.225-.482-.452-.967-.63-1.468-.07-.198.043-.417.284-.472.21-.047.262.145.33.286.227.482.45.967.654 1.408"/><path d="M9.106 17.25c.046.162.012.377-.158.418-.2.048-.46-.034-.537-.233-.19-.49-.226-.98.303-1.355.252.36.283.78.393 1.17z"/><path d="M29.663 76.777c0 .295-.028.593.004.885.078.725-.25.957-.948.955-5.57-.017-11.14-.017-16.708 0-.714.003-1.014-.258-.935-.966.023-.207.003-.42.003-.63V47.244c0-.295.01-.59 0-.886-.017-.647.32-.918.935-.912.21.002.422-.005.633-.005h15.44c.297 0 .593.002.886.028.39.035.62.274.66.65.04.375.028.757.028 1.136v29.521z"/></g></svg><svg width="72" height="88" viewBox="-5 -5 72 88" id="grammy" y="664"><title>grammy</title><desc>Created with Sketch.</desc><g transform="translate(-184 -525) translate(184 525)" fill="#fff"><path d="M31.128 37.4c3.15.316 6.253.645 9.36.93 1.38.125 1.14 1.09 1.21 2 .077.996-.38 1.33-1.27 1.495-4.77.886-9.576.778-14.383.527-1.44-.074-2.868-.368-4.304-.534-.914-.106-1.33-.517-1.255-1.5.07-.906-.178-1.87 1.207-1.993 3.147-.28 6.29-.613 9.436-.924"/><path d="M30.9 12.467c2.636 3.914 5.543 7.245 8.933 10.136 1.86 1.586 3.822 3.054 5.644 4.68 3.383 3.018 4.403 7.983 2.64 12.16-.25.592-.502.81-1.18.664-1.14-.245-2.31-.36-3.505-.537 1.52-2.993 1.697-3.89 1.075-5.52-3.745.524-7.507 1.046-11.266 1.59-.198.027-.403.197-.55.353-1.006 1.063-1.71 1.275-2.526.733-.892-.594-1.223-2.125-.693-3.205.612-1.242 1.72-1.47 2.83-.654.322.238.816.43 1.196.378 3.283-.44 6.557-.94 10.02-1.666-.8-.568-1.52-1.38-2.41-1.66-2.602-.823-5.24-1.626-7.923-2.082-3.265-.555-6.59-.75-9.975-1.11 3.45-4.14 5.992-8.853 7.69-14.26"/><path d="M29.97 5.56c-.206 4.18-1.255 7.667-2.795 11.013-2.015 4.377-4.568 8.406-8.282 11.54-1.256 1.058-2.766 1.93-4.303 2.514-2.012.765-3.65-.29-4.145-2.39-.614-2.598-.27-5.17.442-7.69C12.68 14.18 15.797 8.57 20.59 3.96c1.467-1.41 3.096-2.614 5.15-3.068 1.792-.396 3.134.27 3.697 1.992.327 1 .42 2.08.534 2.676"/><path d="M14.83 42.622c2.146.296 4.25.582 6.352.878 3.21.453 6.406 1.066 9.63 1.31 1.712.128 3.473-.36 5.207-.6 3.764-.522 7.526-1.063 11.355-1.605v12.707c-3.285.472-6.555.945-9.827 1.41-1.7.24-3.395.584-5.103.668-1.577.077-3.182-.03-4.75-.235-4.273-.56-8.532-1.214-12.864-1.84V42.62"/><path d="M62 73.548c-2.103.304-4.016.585-5.93.857-5.853.83-11.707 1.658-17.562 2.48-2.305.326-4.608.852-6.918.89-2.152.037-4.318-.423-6.47-.718-5.78-.79-11.558-1.61-17.336-2.418-2.305-.322-4.612-.636-6.916-.962-.18-.026-.347-.13-.634-.24.963-1.788 1.894-3.52 2.828-5.25 1.9-3.522 3.832-7.026 5.68-10.573.424-.813.9-.937 1.727-.816 5.698.837 11.428 1.49 17.098 2.485 3.69.648 7.205-.142 10.775-.6 4.578-.59 9.14-1.3 13.717-1.907.346-.046.935.197 1.09.48 2.94 5.34 5.83 10.708 8.85 16.29"/></g></svg><svg width="30" height="30" viewBox="-5 -5 30 30" id="incorrect" y="752"><title>incorrect</title><desc>Created with Sketch.</desc><path d="M1.877 0L0 1.877 8.123 10 0 18.123 1.877 20 10 11.877 18.123 20 20 18.123 11.877 10 20 1.877 18.123 0 10 8.123 1.877 0z" fill="#fff"/></svg><svg width="21" height="29" viewBox="-5 -5 21 29" id="lessarrow" y="782"><title>lessarrow</title><desc>Created with Sketch.</desc><path d="M9.43 18.55l1.57-1.5-7.857-7.5L11 2.05 9.43.55 0 9.55l.786.75 8.643 8.25z" fill="#fff"/></svg><svg width="33" height="33" viewBox="-5 -5 33 33" id="morearrow" y="811"><title>morearrow</title><desc>Created with Sketch.</desc><g fill="#fff"><path d="M11.992 13.418L7.732 8.99l-1.24 1.292 4.258 4.428 1.243 1.292 5.502-5.72-1.243-1.29-4.26 4.426z"/><circle fill-opacity=".1" cx="11.5" cy="11.5" r="11.5"/></g></svg><svg width="22" height="26" viewBox="-5 -5 22 26" id="playtriangle" y="844"><title>playtriangle</title><desc>Created with Sketch.</desc><path d="M.5 15.5V.5l11 7.5-11 7.5z" fill="#fff"/></svg><svg width="34" height="34" viewBox="-5 -5 34 34" id="subwaycorrect" y="870"><title>subwaycorrect</title><desc>Created with Sketch.</desc><path d="M12 0C5.373 0 0 5.373 0 12s5.373 12 12 12 12-5.373 12-12S18.627 0 12 0zm-1.132 18.62l-5.28-5.28 1.606-1.607 3.42 3.42 6.192-8.503 1.607 1.607-7.545 10.364z" fill="#fff"/></svg><svg width="34" height="34" viewBox="-5 -5 34 34" id="subwayempty" y="904"><title>subwayempty</title><desc>Created with Sketch.</desc><path d="M24 12c0-6.627-5.373-12-12-12S0 5.373 0 12s5.373 12 12 12 12-5.373 12-12zM2 12C2 6.477 6.477 2 12 2s10 4.477 10 10-4.477 10-10 10S2 17.523 2 12z" fill="#fff"/></svg><svg width="34" height="34" viewBox="-5 -5 34 34" id="subwayincorrect" y="938"><title>subwayincorrect</title><desc>Created with Sketch.</desc><path d="M12 0C5.4 0 0 5.4 0 12s5.4 12 12 12 12-5.4 12-12S18.6 0 12 0zm6 16.345L16.345 18 12 13.655 7.655 18 6 16.345 10.345 12 6 7.655 7.655 6 12 10.345 16.345 6 18 7.655 13.655 12 18 16.345z" fill="#fff"/></svg><svg width="34" height="34" viewBox="-5 -5 34 34" id="subwayselected" y="972"><title>subwayselected</title><desc>Created with Sketch.</desc><g fill="#fff"><path d="M24 12c0-6.627-5.373-12-12-12S0 5.373 0 12s5.373 12 12 12 12-5.373 12-12zM2 12C2 6.477 6.477 2 12 2s10 4.477 10 10-4.477 10-10 10S2 17.523 2 12z"/><circle cx="12" cy="12" r="4"/></g></svg><svg width="31" height="29" viewBox="-5 -5 31 29" id="trophy" y="1006"><title>trophy</title><desc>Created with Sketch.</desc><g transform="translate(-460 -386) translate(460 386)" fill="#fff"><path d="M7.225 10.372c.427-.576.34-.44-.195-.966-.46-.453-.962-.818-1.52-1.108.12.272.247.537.38.786-1.94-.92-4.205-3.45-4.526-6.56h2.66c.006.057.016.113.022.17.192-.187.444-.432.46-.52.015-.08-.34-.86-.613-1.342.007.138.012.278.02.415H.074c0 4.98 3.47 9.057 6.88 9.452.096-.106.187-.214.272-.328"/><path d="M10.43.065H3.786c0 .112.004.22.006.33.007.227.012.453.02.68.008.21.018.42.03.627h-.007c.017.426.035.85.056 1.276h.06c.29 2.577.954 4.848 1.867 6.56-.01-.003-.02-.01-.03-.014.266.436.496.893.83 1.278.095.112.17.228.224.346l.046.007c.227.268.46.51.703.718h-.127v1.277h1.225v1.834H7.463v1.277H6.236v2.554h8.39V16.26H13.4v-1.276h-1.226V13.15H13.4v-1.277h-.126c.243-.207.476-.45.703-.718l.045-.007c.055-.118.13-.234.225-.346.333-.385.563-.842.83-1.278l-.03.015c.912-1.714 1.575-3.985 1.865-6.562h.062c.02-.425.04-.85.056-1.276h-.008c.013-.208.023-.417.032-.627l.018-.68c.002-.11.006-.218.006-.33H10.43"/><path d="M13.638 10.734c-.427-.576-.34-.44.195-.966.46-.453.96-.818 1.52-1.108-.12.272-.247.537-.38.786 1.94-.92 4.205-3.45 4.525-6.56h-2.66c-.005.057-.015.113-.02.17-.193-.188-.445-.433-.46-.52-.016-.08.34-.86.612-1.342-.007.138-.012.277-.02.415h3.84c0 4.98-3.47 9.056-6.88 9.45-.096-.104-.187-.212-.272-.326"/></g></svg><svg baseProfile="full" height="25" width="29" viewBox="-5 -5 29 25" id="twitter" y="1035"><path fill="rgb( 255, 255, 255 )" d="M19 1.775c-.7.3-1.45.504-2.238.596.805-.467 1.422-1.21 1.714-2.093-.754.433-1.587.75-2.475.918C15.29.46 14.28 0 13.158 0 11.005 0 9.26 1.695 9.26 3.785c0 .297.035.586.102.863C6.124 4.49 3.252 2.983 1.33.693c-.335.56-.527 1.21-.527 1.903 0 1.313.688 2.472 1.733 3.15-.638-.02-1.24-.19-1.765-.472v.047c0 1.835 1.344 3.365 3.126 3.713-.326.086-.67.133-1.026.133-.25 0-.495-.024-.733-.068.496 1.504 1.935 2.598 3.64 2.63-1.334 1.014-3.014 1.62-4.84 1.62-.314 0-.624-.02-.93-.054 1.725 1.074 3.773 1.7 5.974 1.7 7.168 0 11.087-5.767 11.087-10.77 0-.164-.003-.327-.01-.49.76-.533 1.42-1.2 1.943-1.96z"/></svg></svg>